<svg xmlns="http://www.w3.org/2000/svg" version="1.1" xmlns:xlink="http://www.w3.org/1999/xlink" xmlns:svgjs="http://svgjs.dev/svgjs" width="1500" height="1500" viewBox="0 0 1500 1500"><rect width="1500" height="1500" fill="#ececea"></rect><g transform="matrix(0.6666666666666666,0,0,0.6666666666666666,249.39393939393938,438.5856950067477)"><svg viewBox="0 0 396 247" data-background-color="#ececea" preserveAspectRatio="xMidYMid meet" height="935" width="1500" xmlns="http://www.w3.org/2000/svg" xmlns:xlink="http://www.w3.org/1999/xlink"><g id="tight-bounds" transform="matrix(1,0,0,1,0.2400000000000091,-0.09999999999999432)"><svg viewBox="0 0 395.52 247.2" height="247.2" width="395.52"><g><svg></svg></g><g><svg viewBox="0 0 395.52 247.2" height="247.2" width="395.52"><g transform="matrix(1,0,0,1,75.54432,96.48578475446965)"><svg viewBox="0 0 244.43135999999998 54.22843049106068" height="54.22843049106068" width="244.43135999999998"><g><svg viewBox="0 0 244.43135999999998 54.22843049106068" height="54.22843049106068" width="244.43135999999998"><g><svg viewBox="0 0 406.51307826379394 90.18714377866759" height="54.22843049106068" width="244.43135999999998"><g transform="matrix(1,0,0,1,162.08171826379396,5.750168053717367)"><svg viewBox="0 0 244.43135999999998 78.68680767123286" height="78.68680767123286" width="244.43135999999998"><g id="textblocktransform"><svg viewBox="0 0 244.43135999999998 78.68680767123286" height="78.68680767123286" width="244.43135999999998" id="textblock"><g><svg viewBox="0 0 244.43135999999998 78.68680767123286" height="78.68680767123286" width="244.43135999999998"><g transform="matrix(1,0,0,1,0,0)"><svg width="244.43135999999998" viewBox="4.5 -37 116.79 37.6" height="78.68680767123286" data-palette-color="#34495e"><path d="M25.3 0L4.5 0 4.5-35 9.25-35 9.25-4.25 25.3-4.25 25.3 0ZM34.05 0L29.55 0 29.55-26 34.05-26 34.05 0ZM31.8-30.45L31.8-30.45Q30.5-30.45 29.57-31.4 28.65-32.35 28.65-33.6L28.65-33.6Q28.65-35.05 29.5-35.9 30.35-36.75 31.8-36.75L31.8-36.75Q33.1-36.75 34.02-35.83 34.95-34.9 34.95-33.6L34.95-33.6Q34.95-32.2 34.1-31.33 33.25-30.45 31.8-30.45ZM46.55 0L42.05 0 42.05-26 46.4-26 46.4-21.65Q47.8-23.75 49.97-25.18 52.15-26.6 55.15-26.6L55.15-26.6Q59.55-26.6 61.72-23.95 63.9-21.3 63.9-16.95L63.9-16.95 63.9 0 59.4 0 59.4-16.45Q59.4-19.25 58.07-20.95 56.75-22.65 54.4-22.65L54.4-22.65Q52.09-22.65 50.05-21.03 48-19.4 46.55-17.2L46.55-17.2 46.55 0ZM92.69-2.5L89.59 0.5 76.14-13.35 76.14 0 71.64 0 71.64-37 76.14-37 76.14-15.85 87.89-26.5 90.49-23.65 80.44-14.75 92.69-2.5ZM106.39 0.6L106.39 0.6Q103.14 0.6 100.49-1.05 97.84-2.7 96.27-5.73 94.69-8.75 94.69-12.85L94.69-12.85Q94.69-16.75 96.27-19.85 97.84-22.95 100.62-24.78 103.39-26.6 106.99-26.6L106.99-26.6Q109.24-26.6 111.07-25.83 112.89-25.05 114.24-23.9L114.24-23.9 114.24-26 118.34-26 118.34-6.3Q118.34-4.4 119.27-3.83 120.19-3.25 121.29-3.25L121.29-3.25 120.34 0.25Q115.54 0.25 114.54-3.65L114.54-3.65Q113.39-2.05 111.42-0.73 109.44 0.6 106.39 0.6ZM107.39-3.4L107.39-3.4Q109.29-3.4 110.99-4.33 112.69-5.25 113.84-6.65L113.84-6.65 113.84-20.6Q112.49-21.55 110.87-22.13 109.24-22.7 107.44-22.7L107.44-22.7Q105.04-22.7 103.22-21.48 101.39-20.25 100.34-18.07 99.29-15.9 99.29-13L99.29-13Q99.29-10.2 100.34-8.03 101.39-5.85 103.24-4.63 105.09-3.4 107.39-3.4Z" opacity="1" transform="matrix(1,0,0,1,0,0)" fill="#34495e" class="wordmark-text-0" data-fill-palette-color="primary" id="text-0"></path></svg></g></svg></g></svg></g></svg></g><g><svg viewBox="0 0 143.50565145599998 90.18714377866759" height="90.18714377866759" width="143.50565145599998"><g><svg xmlns="http://www.w3.org/2000/svg" xmlns:xlink="http://www.w3.org/1999/xlink" version="1.1" x="0" y="0" viewBox="1.0932097337367683 24.81996403110421 95.30679026626323 59.896227846206" style="enable-background:new 0 0 100 100;" xml:space="preserve" height="90.18714377866759" width="143.50565145599998" class="icon-icon-0" data-fill-palette-color="accent" id="icon-0"><g fill="#99b5e2" data-fill-palette-color="accent"><path class="" d="M96.4 36.2C96.4 41.9 92.9 47.8 87.8 48.8 82.1 49.9 79.5 53.7 76.9 58.1 73.8 63.3 71.5 68.7 71.8 75 72 80.2 68.4 84.3 63.7 84.7 59 85 55 81.1 54.5 75.6 53.5 64.7 46.1 59.5 37 56.1 28.5 52.8 21.8 56.5 16.3 62.9 14.5 65 12.9 67.4 11.3 69.7 9.6 72.2 7.4 73.2 4.4 72.2 2 71.4 1 69.5 1.1 67.2 1.2 64.4 2.8 62.5 5.5 61.9 15.8 59.4 23.5 53.7 28.3 44.2 29.7 41.5 32.3 40.2 35.4 40.6 38.8 41 40.9 43.2 41.5 46.4 43.2 55.2 49.7 60.3 56.3 65 60.6 68.1 65.1 67.4 69 63.7S74.5 55.1 75.8 50.1C76.5 47.6 74.5 46.2 73.4 44.4 69.8 38.8 71.2 30.7 76.4 26.9 81.4 23.2 89.7 24.6 93.9 29.8 95.6 31.7 96.2 34.1 96.4 36.2M84 27C78.9 26.9 74.5 31.4 74.4 36.9 74.3 42.1 78.6 46.5 83.7 46.5 89 46.5 93.8 41.9 93.8 36.9 93.9 31.8 89.2 27.1 84 27M56.8 74.7C56.7 78.2 59.9 81.4 63.5 81.3 67.5 81.1 69.4 78.3 69.6 74.8 69.8 70.7 66.9 69.6 62.7 69.7 59.8 69.7 57 70.5 56.8 74.7M39.6 48.4C39.6 45.3 37.5 43.7 34.4 43.7S29.4 45.8 29.3 48.7C29.2 52.2 32.4 52.3 34.8 53.1 37.8 52.8 39.6 51.2 39.6 48.4M3.9 67.2C3.8 68.8 5.3 69.5 6.6 69.6 8.5 69.6 9.6 68.3 9.6 66.4 9.6 64.8 8.2 64.8 7.1 64.8 5.5 64.9 4 65.4 3.9 67.2" fill="#99b5e2" data-fill-palette-color="accent"></path></g></svg></g></svg></g></svg></g></svg></g></svg></g><path d="M195.033 90.486L195.033 29.475 6.783 29.475 6.783 217.725 195.033 217.725 195.033 156.714 190.766 156.714 190.766 213.458 11.05 213.458 11.05 33.742 190.766 33.742 190.766 90.486Z" fill="#34495e" stroke="transparent" data-fill-palette-color="tertiary"></path></svg></g><defs></defs></svg><rect width="395.52" height="247.2" fill="none" stroke="none" visibility="hidden"></rect></g></svg></g></svg>